<?xml version="1.0" standalone="no"?>
<!DOCTYPE svg PUBLIC "-//W3C//DTD SVG 20010904//EN"
 "http://www.w3.org/TR/2001/REC-SVG-20010904/DTD/svg10.dtd">
<svg version="1.0" xmlns="http://www.w3.org/2000/svg"
 width="552.000000pt" height="466.000000pt" viewBox="0 0 552.000000 466.000000"
 preserveAspectRatio="xMidYMid meet">

<g transform="translate(0.000000,466.000000) scale(0.100000,-0.100000)"
fill="#000000" stroke="none">
<path d="M2495 4214 c-227 -26 -433 -75 -575 -136 -14 -6 -34 -14 -45 -18 -45
-17 -204 -97 -264 -132 -34 -21 -66 -38 -70 -38 -5 0 -16 -9 -26 -20 -10 -11
-22 -20 -27 -20 -4 0 -45 -28 -90 -62 -86 -63 -408 -379 -408 -399 0 -6 -13
-24 -30 -39 -16 -15 -30 -35 -30 -43 0 -9 -5 -17 -12 -19 -6 -2 35 -50 90
-106 56 -57 102 -98 102 -91 0 6 14 24 30 39 17 15 30 33 30 39 0 17 246 281
263 281 5 0 17 8 26 18 24 28 149 122 161 122 5 0 10 4 10 8 0 5 12 15 28 23
15 7 45 25 67 39 65 42 294 150 318 150 7 0 17 4 23 8 5 5 29 14 54 21 25 7
54 17 65 21 11 5 34 11 50 14 17 2 50 10 75 16 151 36 496 52 650 30 453 -66
831 -258 1146 -581 294 -303 471 -669 534 -1099 8 -56 10 -153 7 -285 -5 -209
-18 -312 -52 -421 -5 -17 -1 -23 17 -28 25 -8 153 -42 204 -55 18 -5 36 -11
42 -15 15 -9 31 44 57 189 13 79 35 308 35 376 0 122 -25 350 -52 474 -165
759 -722 1384 -1453 1633 -307 105 -643 142 -950 106z"/>
<path d="M2556 3419 c-122 -34 -193 -76 -286 -169 -60 -60 -94 -105 -117 -151
-117 -240 -91 -502 71 -702 l39 -48 -32 -50 c-17 -28 -31 -53 -31 -55 0 -3
-13 -25 -30 -49 -16 -24 -30 -46 -30 -50 0 -4 -13 -26 -30 -50 -16 -24 -30
-46 -30 -50 0 -4 -13 -26 -30 -50 -16 -24 -30 -46 -30 -50 0 -4 -13 -25 -29
-48 -15 -23 -30 -47 -32 -52 -2 -6 -46 -81 -98 -168 -91 -152 -95 -157 -127
-157 -104 0 -232 -96 -272 -203 -99 -262 153 -514 415 -415 77 29 152 104 181
181 32 84 27 195 -11 254 -5 7 52 111 144 265 84 139 161 269 172 288 10 19
28 47 38 62 11 14 19 29 19 33 0 3 14 26 30 50 17 24 30 46 30 50 0 4 14 27
31 52 30 43 33 45 68 39 86 -16 197 -18 249 -5 37 9 59 9 70 3 20 -13 401
-643 401 -665 1 -9 -15 -43 -34 -75 -20 -33 -38 -70 -41 -84 -3 -14 -10 -37
-16 -51 -11 -31 -6 -178 9 -230 43 -152 178 -286 333 -332 46 -14 215 -14 261
0 153 44 286 178 332 333 6 19 11 78 11 130 0 147 -33 229 -131 332 -99 102
-181 137 -347 147 l-99 6 -199 332 -200 332 34 43 c18 24 35 45 38 48 3 3 11
16 19 30 88 152 113 328 70 487 -34 129 -74 198 -169 293 -95 95 -164 135
-293 169 -98 27 -225 26 -321 0z m296 -332 c72 -35 120 -83 155 -155 23 -47
28 -70 28 -132 0 -127 -65 -229 -183 -287 -47 -23 -70 -28 -132 -28 -127 0
-229 65 -287 183 -66 134 -20 304 105 391 97 68 212 78 314 28z m903 -1750
c47 -26 85 -88 85 -137 0 -78 -82 -160 -160 -160 -78 0 -160 82 -160 160 0 78
82 160 160 160 19 0 53 -10 75 -23z"/>
</g>
</svg>
