<?xml version="1.0" standalone="no"?>
<!DOCTYPE svg PUBLIC "-//W3C//DTD SVG 20010904//EN"
 "http://www.w3.org/TR/2001/REC-SVG-20010904/DTD/svg10.dtd">
<svg version="1.0" xmlns="http://www.w3.org/2000/svg"
 width="225.000000pt" height="225.000000pt" viewBox="0 0 225.000000 225.000000"
 preserveAspectRatio="xMidYMid meet">

<g transform="translate(0.000000,225.000000) scale(0.100000,-0.100000)"
fill="#000000" stroke="none">
<path d="M219 1567 c-45 -30 -61 -63 -56 -115 5 -46 35 -87 75 -103 15 -6 22
-17 22 -37 0 -23 -7 -31 -42 -47 -63 -30 -83 -64 -83 -140 0 -76 20 -110 83
-140 35 -16 42 -24 42 -47 0 -20 -7 -31 -22 -37 -13 -5 -34 -21 -48 -36 -20
-22 -25 -37 -25 -82 0 -49 3 -58 32 -84 43 -38 77 -45 126 -28 77 27 109 114
65 179 -13 19 -34 39 -46 45 -28 12 -32 72 -4 82 9 3 29 15 44 25 25 17 30 18
49 4 15 -10 22 -27 23 -55 3 -53 32 -92 83 -110 51 -18 87 -9 130 34 28 28 33
40 33 79 0 95 -103 156 -183 108 -31 -18 -36 -18 -58 -5 -21 12 -24 22 -24 68
0 46 3 56 24 68 22 13 27 13 58 -5 80 -48 183 13 183 108 0 39 -5 51 -33 79
-43 43 -79 52 -130 34 -51 -18 -80 -57 -83 -110 -1 -28 -8 -45 -23 -55 -19
-14 -24 -13 -49 4 -15 10 -35 22 -44 25 -28 10 -24 70 4 82 12 6 33 26 46 45
41 61 15 147 -53 176 -48 20 -77 18 -116 -9z m106 -63 c25 -25 16 -75 -17 -93
-25 -14 -29 -14 -55 5 -34 26 -40 48 -19 79 19 29 66 34 91 9z m302 -181 c20
-30 6 -68 -31 -85 -20 -9 -30 -8 -51 6 -22 14 -26 24 -23 54 5 61 71 77 105
25z m-285 -132 c46 -41 45 -92 -1 -133 -28 -25 -39 -29 -70 -24 -69 11 -104
89 -65 144 34 48 91 54 136 13z m273 -196 c30 -29 31 -45 7 -75 -20 -25 -63
-30 -87 -10 -23 19 -19 76 7 94 31 22 45 20 73 -9z m-297 -161 c26 -18 30 -65
6 -88 -23 -24 -70 -20 -88 6 -23 32 -20 54 10 77 32 25 43 26 72 5z"/>
<path d="M1407 1340 c-25 -20 -27 -27 -27 -101 0 -46 -4 -79 -10 -79 -5 0 -10
-11 -10 -25 0 -14 5 -25 10 -25 6 0 10 -42 10 -106 l0 -105 28 3 27 3 3 103 3
102 29 0 c25 0 30 4 30 25 0 21 -5 25 -30 25 l-30 0 0 71 0 71 31 -4 c28 -4
30 -3 27 26 -3 26 -8 31 -34 34 -19 2 -40 -5 -57 -18z"/>
<path d="M820 1124 l0 -225 28 3 c25 3 27 7 32 58 l5 55 45 -57 c41 -53 48
-58 84 -58 l38 0 -38 48 c-21 26 -49 60 -62 76 l-23 29 53 54 52 53 -39 0
c-32 0 -46 -7 -77 -37 l-38 -37 0 132 0 132 -30 0 -30 0 0 -226z"/>
<path d="M957 1343 c-4 -6 -10 -21 -16 -34 -8 -22 -6 -24 20 -24 16 0 29 1 29
1 0 15 -29 64 -33 57z m13 -33 c0 -5 -5 -10 -11 -10 -5 0 -7 5 -4 10 3 6 8 10
11 10 2 0 4 -4 4 -10z"/>
<path d="M1012 1308 l1 -43 4 38 c2 20 9 37 15 37 5 0 8 -7 4 -15 -3 -8 -1
-15 5 -15 17 0 5 35 -14 38 -14 3 -17 -4 -15 -40z"/>
<path d="M1066 1314 c-9 -20 -14 -39 -11 -42 3 -3 5 0 5 6 0 16 33 15 49 0 9
-9 8 0 -3 26 -9 22 -18 41 -20 43 -1 1 -10 -14 -20 -33z m24 -4 c0 -5 -5 -10
-11 -10 -5 0 -7 5 -4 10 3 6 8 10 11 10 2 0 4 -4 4 -10z"/>
<path d="M1130 1331 c-18 -35 18 -77 44 -51 8 8 7 9 -5 5 -19 -7 -44 19 -34
35 4 6 17 15 29 20 l21 9 -22 0 c-12 1 -27 -8 -33 -18z"/>
<path d="M1202 1315 c0 -22 2 -32 5 -22 6 25 31 21 36 -5 2 -13 4 -3 4 22 1
25 -1 37 -4 28 -2 -10 -11 -18 -18 -18 -7 0 -16 8 -18 18 -3 9 -5 -1 -5 -23z"/>
<path d="M1270 1310 c0 -35 3 -40 23 -39 16 1 18 2 5 6 -10 2 -18 11 -18 18 0
7 8 16 18 18 16 4 16 5 0 6 -10 0 -18 5 -18 10 0 5 8 12 18 14 13 4 11 5 -5 6
-20 1 -23 -4 -23 -39z"/>
<path d="M1550 1124 l0 -225 28 3 c25 3 27 7 32 58 l5 55 45 -57 c41 -53 48
-58 84 -58 l38 0 -38 48 c-21 26 -49 60 -62 76 l-23 29 53 54 52 53 -39 0
c-32 0 -46 -7 -77 -37 l-38 -37 0 132 0 132 -30 0 -30 0 0 -226z"/>
<path d="M1114 1154 c-41 -20 -64 -63 -64 -119 0 -52 19 -96 52 -119 29 -20
97 -20 126 0 20 14 22 14 22 0 0 -11 10 -16 30 -16 l30 0 0 130 0 130 -30 0
c-16 0 -30 -5 -30 -10 0 -6 -13 -4 -30 5 -36 19 -66 19 -106 -1z m110 -55 c21
-17 26 -29 26 -65 0 -53 -26 -84 -70 -84 -66 0 -96 95 -45 145 30 30 54 31 89
4z"/>
<path d="M1854 1160 c-11 -4 -33 -22 -47 -40 -46 -55 -33 -164 25 -204 29 -20
97 -20 126 0 20 14 22 14 22 0 0 -11 10 -16 30 -16 l30 0 0 130 0 130 -30 0
c-16 0 -30 -5 -30 -10 0 -6 -13 -4 -30 5 -32 16 -64 18 -96 5z m100 -61 c21
-17 26 -29 26 -65 0 -52 -26 -84 -67 -84 -68 0 -99 95 -48 145 30 30 54 31 89
4z"/>
<path d="M2082 978 c-18 -18 -15 -43 8 -63 16 -15 24 -16 42 -6 l23 11 -23 -6
c-44 -11 -72 43 -34 65 9 6 12 11 7 11 -6 0 -16 -5 -23 -12z"/>
<path d="M2136 980 c7 -8 14 -24 17 -35 4 -19 5 -19 6 1 0 12 -7 28 -16 35
-16 12 -17 12 -7 -1z"/>
<path d="M2101 954 c-1 -27 25 -27 27 0 1 15 -1 17 -7 7 -7 -11 -9 -11 -14 0
-3 9 -6 6 -6 -7z"/>
</g>
</svg>
